<svg width="1600" height="1200" viewBox="0 0 1600 1200" fill="none" xmlns="http://www.w3.org/2000/svg">
  <rect width="1600" height="1200" fill="#0E2740"/>
  <rect y="760" width="1600" height="440" fill="#145C7A"/>
  <path d="M0 860C180 750 340 730 500 770C660 810 810 890 980 890C1150 890 1340 810 1600 700V1200H0V860Z" fill="#1C7C96"/>
  <circle cx="1270" cy="250" r="90" fill="#F7C95C"/>
  <path d="M1170 340C1170 300 1200 270 1240 270H1310C1350 270 1380 300 1380 340V380H1170V340Z" fill="#2B6F7E"/>
  <rect x="1125" y="380" width="340" height="220" rx="28" fill="#0F4B5C"/>
  <path d="M1040 520C1120 430 1220 390 1320 390C1420 390 1500 430 1580 520V700H1040V520Z" fill="#2AA0B8"/>
  <path d="M470 410C470 338 528 280 600 280H690C762 280 820 338 820 410V760H470V410Z" fill="#F7F7F7"/>
  <path d="M500 420C500 362 548 314 606 314H684C742 314 790 362 790 420V730H500V420Z" fill="#4FC3D4"/>
  <path d="M494 760C512 660 590 595 690 595H730C826 595 904 660 920 760H494Z" fill="#1E6B7E"/>
  <path d="M610 580C640 590 670 620 680 660H640C620 660 600 650 590 626L610 580Z" fill="#F5C468"/>
  <path d="M518 940C580 850 688 784 818 784C960 784 1090 850 1160 940L1140 1060H500L518 940Z" fill="#1B8FA5"/>
  <path d="M760 440C760 398 792 366 834 366H858C900 366 932 398 932 440V538H760V440Z" fill="#E3EEF5"/>
  <path d="M760 622C760 566 806 520 862 520H900C956 520 1002 566 1002 622V708H760V622Z" fill="#2E7E92"/>
</svg>
